<?xml version="1.0" encoding="utf-8"?>
<!-- Generator: Adobe Illustrator 16.0.3, SVG Export Plug-In . SVG Version: 6.00 Build 0)  -->
<!DOCTYPE svg PUBLIC "-//W3C//DTD SVG 1.1//EN" "http://www.w3.org/Graphics/SVG/1.1/DTD/svg11.dtd">
<svg version="1.1"
	 id="svg2" xmlns:osb="http://www.openswatchbook.org/uri/2009/osb" xmlns:dc="http://purl.org/dc/elements/1.1/" xmlns:cc="http://creativecommons.org/ns#" xmlns:rdf="http://www.w3.org/1999/02/22-rdf-syntax-ns#" xmlns:svg="http://www.w3.org/2000/svg" xmlns:sodipodi="http://sodipodi.sourceforge.net/DTD/sodipodi-0.dtd" xmlns:inkscape="http://www.inkscape.org/namespaces/inkscape" sodipodi:docname="drawing.png" inkscape:version="0.48.4 r9939"
	 xmlns="http://www.w3.org/2000/svg" xmlns:xlink="http://www.w3.org/1999/xlink" x="0px" y="0px" width="48px" height="48px"
	 viewBox="0 0 48 48" enable-background="new 0 0 48 48" xml:space="preserve">
<g id="layer1" transform="translate(0,-1004.3622)" inkscape:label="Layer 1" inkscape:groupmode="layer">
	<g id="g3057" transform="matrix(0.06072118,0,0,0.06366132,0.2364937,1002.6677)">
		<linearGradient id="path3213_1_" gradientUnits="userSpaceOnUse" x1="-777.3799" y1="392.3394" x2="-635.1787" y2="392.3394">
			<stop  offset="0.1398" style="stop-color:#FF0000"/>
			<stop  offset="0.3548" style="stop-color:#FFFF00"/>
			<stop  offset="0.4677" style="stop-color:#00FF00"/>
			<stop  offset="0.6989" style="stop-color:#0000FF"/>
			<stop  offset="0.8817" style="stop-color:#FF00FF"/>
		</linearGradient>
		
			<path id="path3213" inkscape:connector-curvature="0" fill="none" stroke="url(#path3213_1_)" stroke-width="5" stroke-linecap="round" stroke-linejoin="round" d="
			M-736.208,944.52h17.98l18.013-2.393h18.013l18.013-2.393l17.98,2.393l17.98-2.393l18.045,2.393h17.98h18.013h18.013h13.51
			l18.013-2.393h17.98l17.98-2.332l18.045,2.332l17.98-2.332l18.013,4.725l18.013-2.393l18.013-2.332l17.98-2.393l18.013,2.393
			h18.014h17.98h18.013h18.013h18.013h18.013l17.98-2.393h18.013l17.98-2.362l13.51-2.393l18.013-2.393l18.013-2.393l18.013,2.393
			l17.98-2.393l18.013-2.362l18.013-2.332l17.98-2.393l18.013-4.786l18.013-2.332l18.013-4.755l18.013-2.393l17.98-4.755
			l18.013-9.511l18.013-142.479l17.98-235.071l18.013-296.86l18.013-377.641l18.013-175.705l17.98-28.532l18.045,64.121
			l13.478,121.125l18.013,151.989l17.98,144.871l18.013,142.479l18.013,125.911l18.013,121.063l17.98,114.038l18.013,111.583
			l18.013,97.378l17.98,75.995l18.013,61.759l18.045,42.768l17.949,35.589l18.045,23.747l18.013,16.628l17.98,11.874l17.98,9.48
			l18.013,9.511l18.045,7.148l17.948,4.755l18.045,4.725l13.51,4.786l18.013-2.393l17.98,2.393h17.98l18.013,2.332h18.045
			l17.948,4.755l18.045-2.362l18.013,2.362l17.98-2.362l17.98,2.362h18.013l18.045,2.393l17.948-2.393l18.045,2.393h18.013h17.98
			h18.045l17.948-2.393l18.045,2.393l17.98-2.393l13.478,2.393h18.045h18.013h17.98l18.045,2.393l17.948-2.393l18.045-2.393
			l17.98,2.393l18.013-2.393h18.013h17.98l18.045-2.362l17.949,2.362l18.045-2.362h17.98h18.013h18.013l17.98,2.362h18.045h17.948
			h18.045l13.51,2.393l17.98-2.393l18.013,2.393l18.013-2.393l17.98-4.755l18.045,4.755h17.948l18.045,2.393l17.98,2.393
			l18.013,2.362h18.013h17.98l18.045-2.362"/>
	</g>
</g>
</svg>
