<?xml version="1.0" encoding="UTF-8" standalone="no"?>
<!-- Created with Inkscape (http://www.inkscape.org/) -->

<svg
   xmlns:osb="http://www.openswatchbook.org/uri/2009/osb"
   xmlns:dc="http://purl.org/dc/elements/1.1/"
   xmlns:cc="http://creativecommons.org/ns#"
   xmlns:rdf="http://www.w3.org/1999/02/22-rdf-syntax-ns#"
   xmlns:svg="http://www.w3.org/2000/svg"
   xmlns="http://www.w3.org/2000/svg"
   xmlns:sodipodi="http://sodipodi.sourceforge.net/DTD/sodipodi-0.dtd"
   xmlns:inkscape="http://www.inkscape.org/namespaces/inkscape"
   width="48"
   height="48"
   id="svg2"
   version="1.1"
   inkscape:version="0.48.4 r9939"
   sodipodi:docname="drawing.png">
  <defs
     id="defs4">
    <linearGradient
       id="linearGradient5862"
       osb:paint="solid">
      <stop
         style="stop-color:#000000;stop-opacity:1;"
         offset="0"
         id="stop5864" />
    </linearGradient>
  </defs>
  <sodipodi:namedview
     id="base"
     pagecolor="#ffffff"
     bordercolor="#666666"
     borderopacity="1.0"
     inkscape:pageopacity="0.0"
     inkscape:pageshadow="2"
     inkscape:zoom="15.839192"
     inkscape:cx="28.031012"
     inkscape:cy="24.852632"
     inkscape:document-units="px"
     inkscape:current-layer="layer1"
     showgrid="true"
     inkscape:window-width="1920"
     inkscape:window-height="1056"
     inkscape:window-x="1366"
     inkscape:window-y="24"
     inkscape:window-maximized="1" />
  <metadata
     id="metadata7">
    <rdf:RDF>
      <cc:Work
         rdf:about="">
        <dc:format>image/svg+xml</dc:format>
        <dc:type
           rdf:resource="http://purl.org/dc/dcmitype/StillImage" />
        <dc:title></dc:title>
      </cc:Work>
    </rdf:RDF>
  </metadata>
  <g
     inkscape:label="Layer 1"
     inkscape:groupmode="layer"
     id="layer1"
     transform="translate(0,-1004.3622)">
    <path
       inkscape:connector-curvature="0"
       style="fill:none;stroke:#ffffff;stroke-width:25.00578308px;stroke-linecap:round;stroke-linejoin:round;stroke-opacity:1;stroke-dasharray:none"
       d="m -20010.461,2643.0288 0,-10897.9565 37208.605,0 0,10897.9565 -37208.605,0"
       id="path2993" />
    <path
       inkscape:connector-curvature="0"
       style="fill:none;stroke:#000000;stroke-width:25.00578308px;stroke-linecap:round;stroke-linejoin:round;stroke-opacity:1;stroke-dasharray:none"
       d=""
       id="path2997" />
    <path
       inkscape:connector-curvature="0"
       style="fill:none;stroke:#000000;stroke-width:25.00578308px;stroke-linecap:round;stroke-linejoin:round;stroke-opacity:1;stroke-dasharray:none"
       d=""
       id="path3001" />
    <path
       inkscape:connector-curvature="0"
       style="fill:none;stroke:none"
       d="M 17198.144,2643.0288"
       id="path3003" />
    <path
       inkscape:connector-curvature="0"
       style="fill:none;stroke:#000000;stroke-width:25.00578308px;stroke-linecap:round;stroke-linejoin:round;stroke-opacity:1;stroke-dasharray:none"
       d=""
       id="path3005" />
    <path
       inkscape:connector-curvature="0"
       style="fill:none;stroke:#000000;stroke-width:25.00578308px;stroke-linecap:round;stroke-linejoin:round;stroke-opacity:1;stroke-dasharray:none"
       d=""
       id="path3009" />
    <path
       inkscape:connector-curvature="0"
       style="fill:none;stroke:#000000;stroke-width:25.00578308px;stroke-linecap:round;stroke-linejoin:round;stroke-opacity:1;stroke-dasharray:none"
       d=""
       id="path3013" />
    <path
       inkscape:connector-curvature="0"
       style="fill:none;stroke:#000000;stroke-width:25.00578308px;stroke-linecap:round;stroke-linejoin:round;stroke-opacity:1;stroke-dasharray:none"
       d=""
       id="path3017" />
    <path
       inkscape:connector-curvature="0"
       style="fill:none;stroke:none"
       d="M -15759.478,2643.0288"
       id="path3019" />
    <path
       inkscape:connector-curvature="0"
       style="fill:none;stroke:#000000;stroke-width:25.00578308px;stroke-linecap:round;stroke-linejoin:round;stroke-opacity:1;stroke-dasharray:none"
       d=""
       id="path3021" />
    <path
       inkscape:connector-curvature="0"
       style="fill:none;stroke:none"
       d="M -15759.478,-8254.9277"
       id="path3023" />
    <path
       inkscape:connector-curvature="0"
       style="fill:none;stroke:#000000;stroke-width:25.00578308px;stroke-linecap:round;stroke-linejoin:round;stroke-opacity:1;stroke-dasharray:none"
       d=""
       id="path3025" />
    <path
       inkscape:connector-curvature="0"
       style="fill:none;stroke:none"
       d="M -16159.571,2854.1268"
       id="path3027" />
    <path
       inkscape:connector-curvature="0"
       style="fill:none;stroke:none"
       d="M -10808.333,2643.0288"
       id="path3031" />
    <path
       inkscape:connector-curvature="0"
       style="fill:none;stroke:#000000;stroke-width:25.00578308px;stroke-linecap:round;stroke-linejoin:round;stroke-opacity:1;stroke-dasharray:none"
       d=""
       id="path3033" />
    <path
       inkscape:connector-curvature="0"
       style="fill:none;stroke:none"
       d="M -10808.333,-8254.9277"
       id="path3035" />
    <path
       inkscape:connector-curvature="0"
       style="fill:none;stroke:#000000;stroke-width:25.00578308px;stroke-linecap:round;stroke-linejoin:round;stroke-opacity:1;stroke-dasharray:none"
       d=""
       id="path3037" />
    <path
       inkscape:connector-curvature="0"
       style="fill:none;stroke:none"
       d="M -11108.402,2854.1268"
       id="path3039" />
    <path
       inkscape:connector-curvature="0"
       style="fill:none;stroke:none"
       d="M -5882.194,2643.0288"
       id="path3043" />
    <path
       inkscape:connector-curvature="0"
       style="fill:none;stroke:#000000;stroke-width:25.00578308px;stroke-linecap:round;stroke-linejoin:round;stroke-opacity:1;stroke-dasharray:none"
       d=""
       id="path3045" />
    <path
       inkscape:connector-curvature="0"
       style="fill:none;stroke:none"
       d="M -5882.194,-8254.9277"
       id="path3047" />
    <path
       inkscape:connector-curvature="0"
       style="fill:none;stroke:#000000;stroke-width:25.00578308px;stroke-linecap:round;stroke-linejoin:round;stroke-opacity:1;stroke-dasharray:none"
       d=""
       id="path3049" />
    <path
       inkscape:connector-curvature="0"
       style="fill:none;stroke:none"
       d="M -6282.286,2854.1268"
       id="path3051" />
    <path
       inkscape:connector-curvature="0"
       style="fill:none;stroke:none"
       d="M -931.049,2643.0288"
       id="path3055" />
    <path
       inkscape:connector-curvature="0"
       style="fill:none;stroke:#000000;stroke-width:25.00578308px;stroke-linecap:round;stroke-linejoin:round;stroke-opacity:1;stroke-dasharray:none"
       d=""
       id="path3057" />
    <path
       inkscape:connector-curvature="0"
       style="fill:none;stroke:none"
       d="M -931.049,-8254.9277"
       id="path3059" />
    <path
       inkscape:connector-curvature="0"
       style="fill:none;stroke:#000000;stroke-width:25.00578308px;stroke-linecap:round;stroke-linejoin:round;stroke-opacity:1;stroke-dasharray:none"
       d=""
       id="path3061" />
    <path
       inkscape:connector-curvature="0"
       style="fill:none;stroke:none"
       d="M -1231.118,2854.1268"
       id="path3063" />
    <path
       inkscape:connector-curvature="0"
       style="fill:none;stroke:none"
       d="M 3995.091,2643.0288"
       id="path3067" />
    <path
       inkscape:connector-curvature="0"
       style="fill:none;stroke:#000000;stroke-width:25.00578308px;stroke-linecap:round;stroke-linejoin:round;stroke-opacity:1;stroke-dasharray:none"
       d=""
       id="path3069" />
    <path
       inkscape:connector-curvature="0"
       style="fill:none;stroke:none"
       d="M 3995.091,-8254.9277"
       id="path3071" />
    <path
       inkscape:connector-curvature="0"
       style="fill:none;stroke:#000000;stroke-width:25.00578308px;stroke-linecap:round;stroke-linejoin:round;stroke-opacity:1;stroke-dasharray:none"
       d=""
       id="path3073" />
    <path
       inkscape:connector-curvature="0"
       style="fill:none;stroke:none"
       d="M 3594.998,2854.1268"
       id="path3075" />
    <path
       inkscape:connector-curvature="0"
       style="fill:none;stroke:none"
       d="M 8946.236,2643.0288"
       id="path3079" />
    <path
       inkscape:connector-curvature="0"
       style="fill:none;stroke:#000000;stroke-width:25.00578308px;stroke-linecap:round;stroke-linejoin:round;stroke-opacity:1;stroke-dasharray:none"
       d=""
       id="path3081" />
    <path
       inkscape:connector-curvature="0"
       style="fill:none;stroke:none"
       d="M 8946.236,-8254.9277"
       id="path3083" />
    <path
       inkscape:connector-curvature="0"
       style="fill:none;stroke:#000000;stroke-width:25.00578308px;stroke-linecap:round;stroke-linejoin:round;stroke-opacity:1;stroke-dasharray:none"
       d=""
       id="path3085" />
    <path
       inkscape:connector-curvature="0"
       style="fill:none;stroke:none"
       d="M 8646.166,2854.1268"
       id="path3087" />
    <path
       inkscape:connector-curvature="0"
       style="fill:none;stroke:none"
       d="M 13897.381,2643.0288"
       id="path3091" />
    <path
       inkscape:connector-curvature="0"
       style="fill:none;stroke:#000000;stroke-width:25.00578308px;stroke-linecap:round;stroke-linejoin:round;stroke-opacity:1;stroke-dasharray:none"
       d=""
       id="path3093" />
    <path
       inkscape:connector-curvature="0"
       style="fill:none;stroke:none"
       d="M 13897.381,-8254.9277"
       id="path3095" />
    <path
       inkscape:connector-curvature="0"
       style="fill:none;stroke:#000000;stroke-width:25.00578308px;stroke-linecap:round;stroke-linejoin:round;stroke-opacity:1;stroke-dasharray:none"
       d=""
       id="path3097" />
    <path
       inkscape:connector-curvature="0"
       style="fill:none;stroke:none"
       d="M 13497.288,2854.1268"
       id="path3099" />
    <path
       inkscape:connector-curvature="0"
       style="fill:none;stroke:none"
       d="M 16447.971,3170.7748"
       id="path3103" />
    <path
       inkscape:connector-curvature="0"
       style="fill:none;stroke:none"
       d="M 17073.115,3052.0318"
       id="path3107" />
    <path
       inkscape:connector-curvature="0"
       style="fill:none;stroke:#000000;stroke-width:25.00578308px;stroke-linecap:round;stroke-linejoin:round;stroke-opacity:1;stroke-dasharray:none"
       d=""
       id="path3113" />
    <path
       inkscape:connector-curvature="0"
       style="fill:none;stroke:none"
       d="M 17198.144,2643.0288"
       id="path3115" />
    <path
       inkscape:connector-curvature="0"
       style="fill:none;stroke:#000000;stroke-width:25.00578308px;stroke-linecap:round;stroke-linejoin:round;stroke-opacity:1;stroke-dasharray:none"
       d=""
       id="path3117" />
    <path
       inkscape:connector-curvature="0"
       style="fill:none;stroke:#000000;stroke-width:25.00578308px;stroke-linecap:round;stroke-linejoin:round;stroke-opacity:1;stroke-dasharray:none"
       d=""
       id="path3125" />
    <path
       inkscape:connector-curvature="0"
       style="fill:none;stroke:none"
       d="M 17198.144,822.3048"
       id="path3127" />
    <path
       inkscape:connector-curvature="0"
       style="fill:none;stroke:#000000;stroke-width:25.00578308px;stroke-linecap:round;stroke-linejoin:round;stroke-opacity:1;stroke-dasharray:none"
       d=""
       id="path3129" />
    <path
       inkscape:connector-curvature="0"
       style="fill:none;stroke:#000000;stroke-width:25.00578308px;stroke-linecap:round;stroke-linejoin:round;stroke-opacity:1;stroke-dasharray:none"
       d=""
       id="path3137" />
    <path
       inkscape:connector-curvature="0"
       style="fill:none;stroke:none"
       d="M 17198.144,-998.4192"
       id="path3139" />
    <path
       inkscape:connector-curvature="0"
       style="fill:none;stroke:#000000;stroke-width:25.00578308px;stroke-linecap:round;stroke-linejoin:round;stroke-opacity:1;stroke-dasharray:none"
       d=""
       id="path3141" />
    <path
       inkscape:connector-curvature="0"
       style="fill:none;stroke:#000000;stroke-width:25.00578308px;stroke-linecap:round;stroke-linejoin:round;stroke-opacity:1;stroke-dasharray:none"
       d=""
       id="path3149" />
    <path
       inkscape:connector-curvature="0"
       style="fill:none;stroke:none"
       d="M 17198.144,-2805.9495"
       id="path3151" />
    <path
       inkscape:connector-curvature="0"
       style="fill:none;stroke:#000000;stroke-width:25.00578308px;stroke-linecap:round;stroke-linejoin:round;stroke-opacity:1;stroke-dasharray:none"
       d=""
       id="path3153" />
    <path
       inkscape:connector-curvature="0"
       style="fill:none;stroke:#000000;stroke-width:25.00578308px;stroke-linecap:round;stroke-linejoin:round;stroke-opacity:1;stroke-dasharray:none"
       d=""
       id="path3161" />
    <path
       inkscape:connector-curvature="0"
       style="fill:none;stroke:none"
       d="M 17198.144,-4626.6734"
       id="path3163" />
    <path
       inkscape:connector-curvature="0"
       style="fill:none;stroke:#000000;stroke-width:25.00578308px;stroke-linecap:round;stroke-linejoin:round;stroke-opacity:1;stroke-dasharray:none"
       d=""
       id="path3165" />
    <path
       inkscape:connector-curvature="0"
       style="fill:none;stroke:#000000;stroke-width:25.00578308px;stroke-linecap:round;stroke-linejoin:round;stroke-opacity:1;stroke-dasharray:none"
       d=""
       id="path3173" />
    <path
       inkscape:connector-curvature="0"
       style="fill:none;stroke:none"
       d="M 17198.144,-6447.3974"
       id="path3175" />
    <path
       inkscape:connector-curvature="0"
       style="fill:none;stroke:#000000;stroke-width:25.00578308px;stroke-linecap:round;stroke-linejoin:round;stroke-opacity:1;stroke-dasharray:none"
       d=""
       id="path3177" />
    <path
       inkscape:connector-curvature="0"
       style="fill:none;stroke:#000000;stroke-width:25.00578308px;stroke-linecap:round;stroke-linejoin:round;stroke-opacity:1;stroke-dasharray:none"
       d=""
       id="path3185" />
    <path
       inkscape:connector-curvature="0"
       style="fill:none;stroke:none"
       d="M 17198.144,-8254.9277"
       id="path3187" />
    <path
       inkscape:connector-curvature="0"
       style="fill:none;stroke:#000000;stroke-width:25.00578308px;stroke-linecap:round;stroke-linejoin:round;stroke-opacity:1;stroke-dasharray:none"
       d=""
       id="path3189" />
    <path
       inkscape:connector-curvature="0"
       style="fill:none;stroke:#000000;stroke-width:25.00578308px;stroke-linecap:round;stroke-linejoin:round;stroke-opacity:1;stroke-dasharray:none"
       d=""
       id="path3197" />
    <path
       inkscape:connector-curvature="0"
       style="fill:none;stroke:#000000;stroke-width:25.00578308px;stroke-linecap:round;stroke-linejoin:round;stroke-opacity:1;stroke-dasharray:none"
       d=""
       id="path3201" />
    <path
       inkscape:connector-curvature="0"
       style="fill:none;stroke:none"
       d="M 17198.144,2643.0288"
       id="path3203" />
    <path
       inkscape:connector-curvature="0"
       style="fill:none;stroke:#000000;stroke-width:25.00578308px;stroke-linecap:round;stroke-linejoin:round;stroke-opacity:1;stroke-dasharray:none"
       d=""
       id="path3205" />
    <path
       inkscape:connector-curvature="0"
       style="fill:none;stroke:#000000;stroke-width:25.00578308px;stroke-linecap:round;stroke-linejoin:round;stroke-opacity:1;stroke-dasharray:none"
       d=""
       id="path3209" />
    <g
       id="g3057"
       transform="matrix(0.06072118,0,0,0.06366132,0.2364937,1002.6677)">
      <path
         id="path3213-3"
         d="m 11.313367,576.5998 6.0014,0 6.00136,-0.79164 6.0014,0 6.00136,-0.79159 6.00144,0.79159 6.0014,-0.79159 6.00137,0.79159 6.001389,0 6.001368,0 6.001392,0 4.50108,0 6.001368,-0.79159 6.001392,0 6.001368,-0.79164 6.001392,0.79164 6.001364,-0.79164 6.0014,1.58323 6.00136,-0.79159 6.00144,-0.79164 6.0014,-0.79162 6.00136,0.79162 6.0014,0 6.00136,0 6.0014,0 6.00136,0 6.00144,0 6.0014,0 6.00136,-0.79162 6.0014,0 6.00136,-0.79161 4.50104,-0.79162 6.00144,-0.79162 6.00136,-0.79161 6.0014,0.79161 6.00136,-0.79161 6.0014,-0.79162 6.00136,-0.79161 6.0014,-0.79162 6.00136,-1.58326 6.00144,-0.79161 6.00139,-1.58323 6.00136,-0.79162 6.0014,-1.58323 6.00136,-3.16649 6.0014,-47.49716 6.00136,-78.3703 6.00144,-98.95238 6.0014,-125.86743 6.00136,-58.57982 6.0014,-9.49944 6.00136,21.37373 4.50104,40.37258 6.00144,50.66362 6.00136,48.28877 6.0014,47.49715 6.00136,41.95579 6.0014,40.37258 6.00136,37.99772 6.0014,37.20609 6.00136,32.4564 6.00144,25.33182 6.0014,20.58209 6.00136,14.24916 6.0014,11.87424 6.00136,7.91623 6.0014,5.54136 6.00136,3.95808 6.00144,3.16644 6.0014,3.16649 6.00136,2.37487 6.00138,1.58321 6.00138,1.58328 4.50102,1.58323 6.00144,-0.79164 6.00138,0.79164 6.00138,0 6.00138,0.79157 6.00138,0 6.00138,1.58328 6.00138,-0.79164 6.00138,0.79164 6.00144,-0.79164 6.00138,0.79164 6.00138,0 6.0014,0.79159 6.00136,-0.79159 6.0014,0.79159 6.00136,0 6.00144,0 6.0014,0 6.00136,-0.79159 6.0014,0.79159 6.00136,-0.79159 4.50104,0.79159 6.00144,0 6.00136,0 6.0014,0 6.00136,0.79164 6.0014,-0.79164 6.00136,-0.79159 6.0014,0.79159 6.00136,-0.79159 6.00144,0 6.0014,0 6.00136,-0.79164 6.0014,0.79164 6.00136,-0.79164 6.0014,0 6.00136,0 6.00144,0 6.0014,0.79164 6.00136,0 6.0014,0 6.00136,0 4.50104,0.79159 6.00144,-0.79159 6.00136,0.79159 6.0014,-0.79159 6.00136,-1.58328 6.0014,1.58328 6.00136,0 6.0014,0.79159 6.00136,0.79164 6.00144,0.79164 6.0014,0 6.00136,0 6.0014,-0.79164"
         style="fill:none;stroke:#a4a454;stroke-width:24.79999924;stroke-linecap:round;stroke-linejoin:round;stroke-miterlimit:4;stroke-opacity:1;stroke-dasharray:none;marker-start:none"
         inkscape:connector-curvature="0" />
      <path
         id="path3213"
         d="m 11.163561,576.39422 6.001392,0 6.001368,-0.79164 6.001392,0 6.001368,-0.79159 6.00144,0.79159 6.001395,-0.79159 6.001368,0.79159 6.001392,0 6.001368,0 6.001392,0 4.50108,0 6.001368,-0.79159 6.001392,0 6.001368,-0.79164 6.001392,0.79164 6.001364,-0.79164 6.0014,1.58323 6.00136,-0.79159 6.00144,-0.79164 6.0014,-0.79162 6.00136,0.79162 6.0014,0 6.00136,0 6.0014,0 6.00136,0 6.00144,0 6.0014,0 6.00136,-0.79162 6.0014,0 6.00136,-0.79161 4.50104,-0.79162 6.00144,-0.79162 6.00136,-0.79161 6.0014,0.79161 6.00136,-0.79161 6.0014,-0.79162 6.00136,-0.79161 6.0014,-0.79162 6.00136,-1.58326 6.00144,-0.79161 6.0014,-1.58323 6.00136,-0.79162 6.0014,-1.58323 6.00136,-3.16649 6.0014,-47.49716 6.00136,-78.3703 6.00144,-98.95238 6.0014,-125.86743 6.00136,-58.57982 6.0014,-9.49944 6.00136,21.37373 4.50104,40.37258 6.00144,50.66362 6.00136,48.28877 6.0014,47.49715 6.00136,41.95579 6.0014,40.37258 6.00136,37.99772 6.0014,37.20609 6.00136,32.4564 6.00144,25.33182 6.0014,20.58209 6.00136,14.24916 6.0014,11.87424 6.00136,7.91623 6.0014,5.54136 6.00136,3.95808 6.00144,3.16644 6.0014,3.16649 6.00136,2.37487 6.00138,1.58321 6.00138,1.58328 4.50102,1.58323 6.00144,-0.79164 6.00138,0.79164 6.00138,0 6.00138,0.79157 6.00138,0 6.00138,1.58328 6.00138,-0.79164 6.00138,0.79164 6.00144,-0.79164 6.00138,0.79164 6.00138,0 6.0014,0.79159 6.00136,-0.79159 6.0014,0.79159 6.00136,0 6.00144,0 6.0014,0 6.00136,-0.79159 6.0014,0.79159 6.00136,-0.79159 4.50104,0.79159 6.00144,0 6.00136,0 6.0014,0 6.00136,0.79164 6.0014,-0.79164 6.00136,-0.79159 6.0014,0.79159 6.00136,-0.79159 6.00144,0 6.0014,0 6.00136,-0.79164 6.0014,0.79164 6.00136,-0.79164 6.0014,0 6.00136,0 6.00144,0 6.0014,0.79164 6.00136,0 6.0014,0 6.00136,0 4.50104,0.79159 6.00144,-0.79159 6.00136,0.79159 6.0014,-0.79159 6.00136,-1.58328 6.0014,1.58328 6.00136,0 6.0014,0.79159 6.00136,0.79164 6.00144,0.79164 6.0014,0 6.00136,0 6.0014,-0.79164"
         style="fill:none;stroke:#000000;stroke-width:11.19999981;stroke-linecap:round;stroke-linejoin:round;stroke-miterlimit:4;stroke-opacity:1;stroke-dasharray:none;marker-start:none"
         inkscape:connector-curvature="0" />
    </g>
  </g>
</svg>
